# xmcd
#
# Track frame offsets: 
#        150
#        10292
#        21807
#        32715
#        45535
#        55425
#        68415
#        80602
#        92637
#        106282
#        117505
#        128292
#        140220
#        152567
#        163240
#        179697
#        194665
#        208237
#        220917
#        233972
#        249907
#        263655
#        275357
#        287260
#        302302
#        316120
#        330107
#        342557
#
# Disc length: 4723 seconds
#
# Revision: 1
# Processed by: cddbd v1.5.2PL0 Copyright (c) Steve Scherf et al.
# Submitted via: ExactAudioCopy v1.1
#
DISCID=8b12711c
DTITLE=Brenda Lee - Little Miss Dynamite (Bear Family) - Disc 3
DYEAR=1995
DGENRE=Pop
TTITLE0=When My Dreamboat Comes Home (stereo)
TTITLE1=Walkin' To New Orleans (stereo)
TTITLE2=Hallelujah, I Love Him So (stereo)
TTITLE3=I'm In The Mood For Love (stereo)
TTITLE4=Swanee River Rock (stereo)
TTITLE5=Pretend (stereo)
TTITLE6=If I Didn't Care (stereo)
TTITLE7=If You Love Me (Really Love Me) (stereo)
TTITLE8=Teach Me Tonight (stereo)
TTITLE9=Blueberry Hill (stereo)
TTITLE10=Around The World (stereo)
TTITLE11=Fools Rush In (Were Angels Fear To Tread) (stereo)
TTITLE12=Someone To Love (The Prisoner's Song) (stereo)
TTITLE13=Zing! Went The Strings Of My Heart (stereo)
TTITLE14=Georgia On My Mind (stereo)
TTITLE15=Just Another Lie (stereo)
TTITLE16=When I Fall In Love (stereo)
TTITLE17=Cry (stereo)
TTITLE18=Will You Love Me Tomorrow (stereo)
TTITLE19=You Can Depend On Me (stereo)
TTITLE20=Careless, That's All (stereo)
TTITLE21=Lover, Come Back To Me (stereo)
TTITLE22=Kansas City (stereo)
TTITLE23=On The Sunny Side Of The Street (stereo)
TTITLE24=All The Way (stereo)
TTITLE25=How Deep Is The Ocean (How High Is The Sky) (stereo)
TTITLE26=Tragedy (stereo)
TTITLE27=Talkin' 'Bout You (stereo)
EXTD=
EXTT0=
EXTT1=
EXTT2=
EXTT3=
EXTT4=
EXTT5=
EXTT6=
EXTT7=
EXTT8=
EXTT9=
EXTT10=
EXTT11=
EXTT12=
EXTT13=
EXTT14=
EXTT15=
EXTT16=
EXTT17=
EXTT18=
EXTT19=
EXTT20=
EXTT21=
EXTT22=
EXTT23=
EXTT24=
EXTT25=
EXTT26=
EXTT27=
PLAYORDER=
